<svg width="220" height="260" viewBox="0 0 220 260" fill="none" xmlns="http://www.w3.org/2000/svg">
  <rect width="220" height="260" rx="30" fill="#F4F8FD"/>
  <circle cx="110" cy="86" r="48" fill="#0B1824"/>
  <path d="M82 80C82 62.3269 96.3269 48 114 48H120C137.673 48 152 62.3269 152 80V98C152 115.673 137.673 130 120 130H114C96.3269 130 82 115.673 82 98V80Z" fill="#CFE9FF"/>
  <path d="M70 204C70 168.654 98.6538 140 134 140H146C181.346 140 210 168.654 210 204V224H70V204Z" fill="#0E2133"/>
  <path d="M22 204C22 168.654 50.6538 140 86 140H98C133.346 140 162 168.654 162 204V224H22V204Z" fill="#6DB8FF"/>
  <circle cx="101" cy="85" r="5" fill="#0B1824"/>
  <circle cx="135" cy="85" r="5" fill="#0B1824"/>
  <path d="M98 108C103.167 113.333 112.8 120.8 126 108" stroke="#0B1824" stroke-width="6" stroke-linecap="round"/>
  <rect x="86" y="20" width="72" height="20" rx="10" fill="#6DB8FF"/>
  <text x="110" y="248" text-anchor="middle" fill="#0B1824" font-family="Arial, sans-serif" font-size="16" font-weight="700">Avatar IA</text>
</svg>
